<svg width="248" height="192" viewBox="0 0 248 192" fill="none" xmlns="http://www.w3.org/2000/svg">
<path d="M166.359 127.178C165.612 126.35 167.374 121.512 175.736 121.17C184.097 120.827 187.447 123.872 187.459 127.178C187.465 128.641 166.359 127.178 166.359 127.178Z" fill="#455A64"/>
<path d="M162.23 0.616314L152.941 58.0634H237.776L247.999 -6.10352e-05L162.23 0.616314Z" fill="#F5F5F5"/>
<path d="M161.384 5.8399C161.422 5.64067 247.029 5.51615 247.029 5.51615L248 -6.10352e-05L162.231 0.622536L161.384 5.85236" fill="#E0E0E0"/>
<path d="M165.813 3.20002C165.814 3.35667 165.769 3.51015 165.682 3.641C165.596 3.77184 165.473 3.87415 165.329 3.93496C165.185 3.99576 165.025 4.01231 164.872 3.9825C164.718 3.9527 164.576 3.87789 164.465 3.76757C164.354 3.65724 164.278 3.51636 164.247 3.36281C164.216 3.20927 164.231 3.04996 164.291 2.90512C164.351 2.76028 164.452 2.63642 164.582 2.54926C164.712 2.46209 164.865 2.41556 165.022 2.41555C165.126 2.41473 165.228 2.43441 165.324 2.47346C165.42 2.51252 165.507 2.57018 165.581 2.64311C165.654 2.71603 165.713 2.80279 165.752 2.89837C165.792 2.99396 165.813 3.09648 165.813 3.20002Z" fill="#263238"/>
<path d="M169.675 3.2C169.675 3.35515 169.629 3.50683 169.543 3.63583C169.457 3.76484 169.334 3.86538 169.191 3.92476C169.048 3.98413 168.89 3.99967 168.738 3.9694C168.586 3.93913 168.446 3.86442 168.336 3.75471C168.226 3.645 168.152 3.50522 168.121 3.35304C168.091 3.20087 168.107 3.04314 168.166 2.89979C168.225 2.75645 168.326 2.63393 168.455 2.54773C168.584 2.46153 168.736 2.41553 168.891 2.41553C169.099 2.41553 169.298 2.49818 169.446 2.6453C169.593 2.79241 169.675 2.99194 169.675 3.2Z" fill="#263238"/>
<path d="M173.539 3.20002C173.54 3.35667 173.495 3.51015 173.409 3.641C173.323 3.77184 173.2 3.87415 173.055 3.93496C172.911 3.99576 172.752 4.01231 172.598 3.9825C172.444 3.9527 172.303 3.87789 172.192 3.76757C172.08 3.65724 172.004 3.51636 171.973 3.36281C171.942 3.20927 171.958 3.04996 172.017 2.90512C172.077 2.76028 172.178 2.63642 172.309 2.54926C172.439 2.46209 172.592 2.41556 172.748 2.41555C172.852 2.41473 172.955 2.43441 173.051 2.47346C173.146 2.51252 173.234 2.57018 173.307 2.64311C173.381 2.71603 173.439 2.80279 173.479 2.89837C173.519 2.99396 173.539 3.09648 173.539 3.20002Z" fill="#263238"/>
<path d="M183.124 31.6466L172.509 43.9242C170.504 42.5642 168.857 40.741 167.708 38.6092C166.558 36.4773 165.939 34.0996 165.903 31.6777C165.903 23.1419 173.679 16.1128 183.124 16.1128C192.569 16.1128 200.345 23.1357 200.345 31.6777L183.124 31.6466Z" fill="#B11029"/>
<path d="M184.488 33.5953C184.437 33.6822 184.376 33.7636 184.308 33.8381L183.754 34.4981L181.649 36.9885C179.819 39.1302 177.217 42.156 174.097 45.7982V45.599C176.449 47.218 179.166 48.2277 182.004 48.5376C185.208 48.9071 188.453 48.4172 191.405 47.1181C194.223 45.8942 196.656 43.9299 198.447 41.4338C199.254 40.2699 199.901 39.003 200.371 37.6671C200.781 36.4193 201.03 35.1241 201.112 33.8132L201.249 33.9564L189.108 33.751L185.696 33.6762L184.794 33.6451C184.688 33.655 184.582 33.655 184.476 33.6451C184.575 33.6355 184.675 33.6355 184.775 33.6451H185.665H189.058L201.249 33.726H201.398V33.8755C201.327 35.2157 201.08 36.5408 200.664 37.8165C200.191 39.1812 199.535 40.4755 198.715 41.6642C196.891 44.2269 194.4 46.2403 191.511 47.4855C188.504 48.8011 185.202 49.2952 181.942 48.9174C179.056 48.5898 176.296 47.55 173.911 45.8916L173.786 45.8044L173.886 45.6861L181.568 36.9262L183.716 34.4981L184.289 33.8755C184.347 33.7764 184.414 33.6827 184.488 33.5953Z" fill="#263238"/>
<path d="M190.446 23.366C190.979 23.366 191.411 22.9339 191.411 22.4009C191.411 21.868 190.979 21.4359 190.446 21.4359C189.913 21.4359 189.481 21.868 189.481 22.4009C189.481 22.9339 189.913 23.366 190.446 23.366Z" fill="#263238"/>
<path d="M210.582 15.3407C210.281 15.3874 209.977 15.4082 209.673 15.403L207.183 15.4528C205.097 15.4528 202.202 15.5026 199.033 15.5026H197.514L197.626 15.459C195.627 17.4513 193.847 19.1946 192.558 20.4398L191.033 21.8967C190.859 22.0859 190.662 22.2532 190.447 22.3948C190.599 22.1876 190.767 21.9939 190.952 21.8158C191.331 21.4111 191.823 20.9005 192.409 20.2904C193.654 19.0016 195.409 17.221 197.389 15.2162L197.433 15.1726H199.07C202.252 15.1726 205.134 15.1726 207.22 15.2162L209.711 15.2722C210.003 15.2675 210.294 15.2904 210.582 15.3407Z" fill="#263238"/>
<path d="M232.447 27.4687C232.451 27.3575 232.466 27.2471 232.491 27.1387C232.528 26.9145 232.578 26.6095 232.647 26.2172L233.269 22.7369L235.517 10.2476L235.647 10.4033L211.534 10.4344L211.69 10.3037V10.3659V10.4406V10.5838L211.634 10.8702L211.528 11.4492L211.316 12.5948C211.173 13.3544 211.036 14.1077 210.893 14.8548C210.619 16.3491 210.347 17.8184 210.077 19.2628C209.536 22.1392 209.019 24.8662 208.54 27.4873L208.39 27.313L225.761 27.3815L230.741 27.4251H232.068H232.41H232.534H232.429H232.099H230.797L225.866 27.4624L208.434 27.5309H208.259L208.291 27.3566C208.77 24.7604 209.274 22.0023 209.81 19.1196C210.071 17.6814 210.345 16.2121 210.619 14.7179C210.762 13.9645 210.899 13.2112 211.042 12.4516C211.111 12.0718 211.179 11.6921 211.254 11.306L211.36 10.7333L211.41 10.4469L211.441 10.2974V10.229V10.1729L211.603 10.0359L235.716 10.0671H235.803L235.772 10.2227C234.776 15.4339 233.954 19.736 233.381 22.7556C233.089 24.2312 232.864 25.3892 232.703 26.2048L232.522 27.0951C232.472 27.3753 232.447 27.4749 232.447 27.4687Z" fill="#263238"/>
<path d="M191.958 42.7788C192.491 42.7788 192.923 42.3467 192.923 41.8138C192.923 41.2808 192.491 40.8487 191.958 40.8487C191.425 40.8487 190.993 41.2808 190.993 41.8138C190.993 42.3467 191.425 42.7788 191.958 42.7788Z" fill="#263238"/>
<path d="M209.479 41.8137C209.479 41.9071 205.556 41.9756 200.719 41.9756C195.881 41.9756 191.959 41.9071 191.959 41.8137C191.959 41.7203 195.881 41.6518 200.719 41.6518C205.556 41.6518 209.479 41.7265 209.479 41.8137Z" fill="#263238"/>
<path d="M232.445 49.3346C232.452 49.2546 232.467 49.1755 232.488 49.098C232.526 48.9299 232.575 48.7057 232.644 48.4256C232.787 47.803 232.993 46.9749 233.266 45.8916C233.808 43.6876 234.58 40.5435 235.533 36.6772L235.651 36.8266L210.785 36.8639L210.94 36.7457V36.783V36.8328V36.9387L210.884 37.1503L210.778 37.5613L210.573 38.3955C210.43 38.9434 210.293 39.4913 210.156 40.0392L209.272 43.3016C208.736 45.4122 208.219 47.4543 207.721 49.4031L207.578 49.2163L225.416 49.2848L230.571 49.3221H231.953H232.314H232.445H232.333H231.984H230.633L225.503 49.3595L207.578 49.428H207.379L207.429 49.235C207.921 47.2862 208.431 45.2379 208.96 43.1273C209.226 42.0689 209.498 40.9959 209.776 39.9084L210.187 38.2648L210.399 37.4367L210.504 37.0196L210.554 36.8079V36.7083V36.6523V36.6149L210.71 36.4904L235.576 36.534H235.8L235.763 36.6834C234.755 40.5684 233.939 43.725 233.366 45.9352C233.08 46.9998 232.856 47.8403 232.7 48.4256C232.625 48.6933 232.569 48.905 232.526 49.0482C232.482 49.1914 232.445 49.3408 232.445 49.3346Z" fill="#263238"/>
<path d="M230.486 15.5584C230.486 15.6518 226.794 15.7203 222.236 15.7203C217.679 15.7203 213.987 15.6518 213.987 15.5584C213.987 15.465 217.679 15.3965 222.236 15.3965C226.794 15.3965 230.486 15.4713 230.486 15.5584Z" fill="#263238"/>
<path d="M230.292 18.2607C230.292 18.354 226.556 18.4225 221.999 18.4225C217.441 18.4225 213.699 18.354 213.699 18.2607C213.699 18.1673 217.435 18.0988 221.999 18.0988C226.562 18.0988 230.292 18.1735 230.292 18.2607Z" fill="#263238"/>
<path d="M229.815 20.8883C229.815 20.9755 226.229 21.0502 221.809 21.0502C217.388 21.0502 213.796 20.9755 213.796 20.8883C213.796 20.8012 217.382 20.7265 221.809 20.7265C226.235 20.7265 229.815 20.7763 229.815 20.8883Z" fill="#263238"/>
<path d="M230.098 41.5149C230.098 41.6021 226.581 41.6768 222.235 41.6768C217.889 41.6768 214.371 41.6021 214.371 41.5149C214.371 41.4277 217.895 41.353 222.235 41.353C226.574 41.353 230.098 41.434 230.098 41.5149Z" fill="#263238"/>
<path d="M229.13 44.5032C229.13 44.5966 226.13 44.6651 222.425 44.6651C218.721 44.6651 215.72 44.5966 215.72 44.5032C215.72 44.4098 218.721 44.3413 222.425 44.3413C226.13 44.3413 229.13 44.416 229.13 44.5032Z" fill="#263238"/>
<path d="M128.925 107.055C128.626 108.805 120.321 127.184 125.681 127.184H152.628C152.628 127.184 149.844 124.569 158.268 107.055H128.925Z" fill="#455A64"/>
<path d="M111.494 45.7113L100.481 110.075H193.378L204.772 43.4513L111.494 45.7113Z" fill="#455A64"/>
<path d="M114.651 48.8491L105.368 106.302H190.197L200.42 48.239L114.651 48.8491Z" fill="#FAFAFA"/>
<path d="M204.772 43.4513L206.528 44.6343L194.698 111.825H102.934L100.481 110.075H193.378L204.772 43.4513Z" fill="#263238"/>
<path d="M113.809 54.0789C113.84 53.8735 199.447 53.7552 199.447 53.7552L200.419 48.239L114.65 48.8615L113.809 54.0914" fill="#EBEBEB"/>
<path d="M176.828 101.203V101.041L176.903 100.562C176.982 100.105 177.087 99.4828 177.22 98.6941C177.513 97.0194 177.924 94.6161 178.434 91.6339C179.493 85.5947 180.968 77.1896 182.643 67.6514V67.5145H189.654L189.622 67.7075C187.026 81.772 184.754 94.1305 183.44 101.234V101.309H183.372L178.49 101.259H177.245H176.94H177.276H178.565L183.39 101.209L183.303 101.278L189.33 67.7262L189.492 67.9129H182.817L182.973 67.7822C181.248 77.2643 179.736 85.6134 178.615 91.6214C178.067 94.6099 177.619 97.0194 177.307 98.7004C177.152 99.516 177.033 100.157 176.946 100.618C176.903 100.823 176.872 100.992 176.847 101.116C176.842 101.145 176.835 101.174 176.828 101.203Z" fill="#263238"/>
<path d="M166.071 101.203C166.08 101.052 166.102 100.902 166.14 100.755C166.196 100.425 166.277 99.983 166.376 99.4227C166.6 98.2211 166.912 96.5214 167.304 94.4419C168.12 90.1273 169.259 84.1254 170.56 77.2644V77.1337H177.571L177.533 77.3267C175.566 87.0828 173.798 95.7556 172.702 101.253V101.334H172.621L167.746 101.278H166.501C166.362 101.287 166.223 101.287 166.084 101.278H166.544H167.839L172.646 101.222L172.546 101.303C173.63 95.7991 175.336 87.1201 177.253 77.3516L177.409 77.5446H170.697L170.853 77.4201C169.502 84.2188 168.319 90.1709 167.466 94.4481C167.036 96.5712 166.694 98.2771 166.445 99.4787L166.165 100.842C166.165 100.985 166.102 101.104 166.084 101.197L166.071 101.203Z" fill="#263238"/>
<path d="M155.27 101.203C155.265 101.137 155.265 101.07 155.27 101.004L155.37 100.381C155.463 99.8333 155.594 99.0488 155.768 98.0402C156.129 95.9794 156.646 93.0096 157.294 89.3238C158.614 81.8527 160.45 71.5113 162.53 59.7878V59.657H169.54L169.509 59.8438C166.259 77.6439 163.389 93.1528 161.87 101.203V101.271H161.801L156.901 101.222H155.656H155.245H155.687H156.964L161.808 101.178L161.733 101.24C163.152 93.1466 165.954 77.6501 169.204 59.8563L169.366 60.0493H162.71L162.866 59.9123C160.743 71.5736 158.863 81.8838 157.505 89.2989C156.821 92.9971 156.26 95.9794 155.887 98.0464L155.438 100.418C155.389 100.68 155.351 100.885 155.32 101.041L155.27 101.203Z" fill="#263238"/>
<path d="M144.485 101.203C144.49 101.098 144.502 100.994 144.522 100.892C144.566 100.649 144.616 100.344 144.678 99.9578C144.821 99.0987 145.027 97.9033 145.3 96.4153C145.842 93.3334 146.595 89.0562 147.461 84.1127V83.982H154.465L154.428 84.175C153.139 90.899 151.981 96.9507 151.159 101.228V101.321H151.072L146.216 101.259L144.902 101.203C144.759 101.212 144.615 101.212 144.472 101.203H144.946H146.259L151.041 101.141L150.929 101.228C151.726 96.9507 152.853 90.8866 154.098 84.1563L154.26 84.3493H147.592L147.741 84.2248C146.82 89.1122 146.029 93.3396 145.45 96.3841C145.163 97.8784 144.927 99.0862 144.759 99.9516C144.678 100.344 144.616 100.668 144.566 100.91C144.545 101.009 144.517 101.107 144.485 101.203Z" fill="#263238"/>
<path d="M133.693 101.203C133.693 101.203 133.693 101.16 133.693 101.073C133.693 100.985 133.693 100.83 133.75 100.668C133.812 100.288 133.893 99.765 133.999 99.0926C134.229 97.6918 134.553 95.687 134.957 93.1967C135.804 88.1287 136.975 81.0809 138.313 73.0556V72.9249H145.324L145.286 73.1179C143.232 84.7169 141.42 94.9711 140.305 101.222V101.303H140.231L135.362 101.247H134.086C133.947 101.256 133.807 101.256 133.669 101.247H133.787H134.123H135.418L140.231 101.197L140.137 101.272L144.981 73.1428L145.143 73.3358H138.5L138.656 73.205C137.267 81.1743 136.047 88.1474 135.169 93.1967C134.721 95.687 134.366 97.7105 134.111 99.1238C133.986 99.8024 133.893 100.369 133.818 100.724L133.737 101.147L133.693 101.203Z" fill="#263238"/>
<path d="M122.924 101.203C122.916 101.143 122.916 101.082 122.924 101.022C122.924 100.885 122.974 100.705 123.011 100.475C123.099 99.9702 123.217 99.2293 123.373 98.3328C123.69 96.465 124.157 93.7318 124.73 90.3573C125.913 83.5399 127.563 74.0515 129.43 63.3117V63.181H136.441L136.41 63.374C133.508 79.5117 130.943 93.6197 129.53 101.222V101.29H129.462L124.574 101.24H123.329H123.03H123.36H124.636L129.474 101.191L129.393 101.259C130.713 93.6384 133.216 79.5179 136.117 63.3864L136.273 63.5732H129.605L129.76 63.4425C127.849 74.1262 126.156 83.5586 124.942 90.3386C124.319 93.7256 123.827 96.4463 123.478 98.339C123.31 99.2729 123.173 99.9951 123.08 100.512C123.03 100.748 122.999 100.935 122.968 101.078C122.937 101.222 122.924 101.203 122.924 101.203Z" fill="#263238"/>
<path d="M118.235 51.4389C118.236 51.5956 118.19 51.749 118.104 51.8799C118.018 52.0107 117.895 52.1131 117.751 52.1739C117.606 52.2347 117.447 52.2512 117.293 52.2214C117.14 52.1916 116.998 52.1168 116.887 52.0065C116.776 51.8961 116.7 51.7553 116.669 51.6017C116.638 51.4482 116.653 51.2889 116.713 51.144C116.772 50.9992 116.874 50.8753 117.004 50.7882C117.134 50.701 117.287 50.6545 117.444 50.6544C117.652 50.6544 117.853 50.7369 118.001 50.8838C118.149 51.0308 118.233 51.2303 118.235 51.4389Z" fill="#263238"/>
<path d="M121.313 52.2234C121.746 52.2234 122.097 51.8722 122.097 51.4389C122.097 51.0057 121.746 50.6544 121.313 50.6544C120.879 50.6544 120.528 51.0057 120.528 51.4389C120.528 51.8722 120.879 52.2234 121.313 52.2234Z" fill="#263238"/>
<path d="M125.961 51.439C125.962 51.5959 125.917 51.7496 125.83 51.8806C125.744 52.0115 125.621 52.1139 125.476 52.1745C125.331 52.2351 125.172 52.2513 125.018 52.221C124.864 52.1906 124.722 52.1152 124.611 52.0043C124.5 51.8933 124.425 51.7518 124.395 51.5979C124.364 51.4439 124.381 51.2844 124.441 51.1397C124.502 50.995 124.604 50.8715 124.735 50.7851C124.866 50.6987 125.02 50.6532 125.177 50.6545C125.384 50.6561 125.583 50.7393 125.73 50.886C125.876 51.0328 125.96 51.2314 125.961 51.439Z" fill="#263238"/>
<path d="M112.141 101.203C112.141 101.203 112.141 101.041 112.209 100.724C112.278 100.406 112.34 99.9082 112.44 99.3105C112.658 98.0653 112.963 96.2411 113.342 94.006C114.139 89.4361 115.241 83.0856 116.505 75.8386V75.7079H123.516L123.478 75.9009C121.555 86.2733 119.842 95.4753 118.778 101.228V101.309H118.703L113.828 101.253H112.583C112.442 101.262 112.301 101.262 112.16 101.253H112.284H112.62H113.915L118.728 101.197L118.628 101.278L123.204 75.932L123.36 76.1188H116.661L116.817 75.988C115.503 83.179 114.326 89.4797 113.529 94.006C113.106 96.2536 112.77 98.0653 112.527 99.3354C112.415 99.958 112.321 100.431 112.253 100.78L112.178 101.16C112.166 101.175 112.154 101.189 112.141 101.203Z" fill="#263238"/>
<path d="M184.918 75.8696H149.38L151.41 63.9406H187.197L184.918 75.8696Z" fill="#B11029"/>
<path d="M149.379 75.8697L148.688 80.0349C148.688 80.0349 153.358 75.7079 153.283 75.7079H149.41" fill="#B11029"/>
<path d="M181.833 68.0878C181.833 68.1749 175.912 68.2496 168.615 68.2496C161.319 68.2496 155.391 68.1749 155.391 68.0878C155.391 68.0006 161.312 67.9259 168.615 67.9259C175.919 67.9259 181.833 68.0006 181.833 68.0878Z" fill="#FAFAFA"/>
<path d="M181.485 70.9699C181.485 71.0571 175.564 71.1318 168.267 71.1318C160.97 71.1318 155.043 71.0571 155.043 70.9699C155.043 70.8828 160.964 70.808 168.267 70.808C175.57 70.808 181.485 70.8765 181.485 70.9699Z" fill="#FAFAFA"/>
<path d="M239.614 131.306H138.367V190.384H239.614V131.306Z" fill="#263238"/>
<path d="M184.489 131.306H138.367V190.384H184.489V131.306Z" fill="#455A64"/>
<path d="M179.766 151.372C179.766 151.372 179.766 151.267 179.766 151.074C179.766 150.881 179.766 150.582 179.766 150.214C179.766 149.449 179.766 148.347 179.735 146.933C179.735 144.094 179.703 140.004 179.672 134.961L179.791 135.079L142.69 135.123C142.547 135.272 142.883 134.93 142.852 134.967V139.238C142.852 140.651 142.852 142.046 142.852 143.416C142.852 146.161 142.852 148.826 142.852 151.372L142.702 151.223L169.294 151.292L177.008 151.335H179.075H179.616H179.803C179.747 151.341 179.691 151.341 179.635 151.335H179.112H177.076L169.399 151.379L142.702 151.453H142.547V151.298C142.547 148.751 142.547 146.087 142.547 143.341V134.967C142.509 134.967 142.852 134.656 142.709 134.799L179.766 134.824H179.884V134.936C179.884 140.01 179.834 144.119 179.822 146.983C179.822 148.384 179.822 149.474 179.791 150.233C179.791 150.588 179.791 150.856 179.791 151.074C179.79 151.174 179.781 151.274 179.766 151.372Z" fill="#263238"/>
<path d="M162.815 143.166C162.815 143.166 162.778 143.029 162.703 142.799C162.599 142.481 162.396 142.204 162.124 142.008C161.928 141.866 161.699 141.775 161.459 141.744C161.219 141.712 160.974 141.741 160.748 141.828C160.474 141.93 160.239 142.113 160.072 142.353C159.906 142.593 159.816 142.878 159.816 143.17C159.816 143.461 159.906 143.746 160.072 143.986C160.239 144.226 160.474 144.409 160.748 144.511C160.975 144.595 161.218 144.622 161.458 144.59C161.698 144.559 161.926 144.47 162.124 144.331C162.396 144.135 162.599 143.858 162.703 143.54C162.778 143.31 162.784 143.166 162.815 143.166C162.846 143.166 162.865 143.31 162.815 143.571C162.743 143.941 162.542 144.274 162.248 144.511C162.026 144.692 161.761 144.813 161.479 144.862C161.196 144.911 160.906 144.887 160.636 144.791C160.3 144.674 160.008 144.454 159.802 144.164C159.596 143.873 159.485 143.526 159.485 143.17C159.485 142.813 159.596 142.466 159.802 142.175C160.008 141.885 160.3 141.665 160.636 141.548C160.906 141.453 161.195 141.429 161.477 141.477C161.759 141.525 162.025 141.644 162.248 141.822C162.543 142.06 162.744 142.396 162.815 142.768C162.865 143.029 162.834 143.173 162.815 143.166Z" fill="#263238"/>
<path d="M179.768 169.44C179.768 169.44 179.768 169.334 179.768 169.141C179.768 168.948 179.768 168.643 179.768 168.276C179.768 167.51 179.768 166.408 179.737 165.001C179.737 162.156 179.706 158.071 179.675 153.028L179.793 153.147L142.693 153.19L142.854 153.028V157.293C142.854 158.707 142.854 160.095 142.854 161.471C142.854 164.216 142.854 166.875 142.854 169.428L142.705 169.272L169.296 169.347L177.01 169.39H179.077H179.619C179.681 169.385 179.743 169.385 179.806 169.39H179.637H179.114H177.079L169.402 169.434L142.705 169.509H142.549V169.353C142.549 166.8 142.549 164.142 142.549 161.396V153.041L142.711 152.879L179.812 152.923H179.93V153.041C179.93 158.115 179.88 162.224 179.868 165.082C179.868 166.483 179.868 167.572 179.837 168.338C179.837 168.693 179.837 168.961 179.837 169.172C179.819 169.263 179.796 169.352 179.768 169.44Z" fill="#263238"/>
<path d="M162.815 161.234C162.815 161.234 162.778 161.091 162.703 160.861C162.599 160.542 162.396 160.265 162.124 160.07C161.926 159.931 161.698 159.842 161.458 159.81C161.218 159.779 160.975 159.806 160.748 159.889C160.474 159.991 160.239 160.175 160.072 160.414C159.906 160.654 159.816 160.939 159.816 161.231C159.816 161.523 159.906 161.808 160.072 162.048C160.239 162.288 160.474 162.471 160.748 162.573C160.974 162.659 161.218 162.688 161.458 162.657C161.698 162.627 161.926 162.538 162.124 162.399C162.398 162.202 162.601 161.923 162.703 161.602C162.778 161.371 162.784 161.234 162.815 161.234C162.846 161.234 162.865 161.377 162.815 161.633C162.745 162.006 162.544 162.341 162.248 162.579C162.025 162.759 161.76 162.878 161.478 162.926C161.196 162.974 160.906 162.949 160.636 162.853C160.3 162.735 160.008 162.516 159.802 162.225C159.596 161.935 159.485 161.587 159.485 161.231C159.485 160.875 159.596 160.527 159.802 160.237C160.008 159.946 160.3 159.727 160.636 159.609C160.906 159.514 161.196 159.49 161.479 159.539C161.761 159.588 162.026 159.709 162.248 159.889C162.544 160.127 162.745 160.463 162.815 160.836C162.865 161.091 162.834 161.234 162.815 161.234Z" fill="#263238"/>
<path d="M179.766 187.501C179.766 187.501 179.766 187.396 179.766 187.203C179.766 187.01 179.766 186.711 179.766 186.343C179.766 185.578 179.766 184.476 179.735 183.062C179.735 180.223 179.703 176.133 179.672 171.09L179.791 171.208L142.69 171.252C142.547 171.401 142.883 171.059 142.852 171.096V175.367C142.852 176.78 142.852 178.175 142.852 179.545C142.852 182.29 142.852 184.955 142.852 187.501L142.702 187.352L169.294 187.42L177.008 187.464H179.075H179.616H179.803C179.747 187.47 179.691 187.47 179.635 187.464H179.112H177.076L169.399 187.501L142.702 187.576H142.547V187.42C142.547 184.874 142.547 182.209 142.547 179.464V171.096C142.509 171.127 142.852 170.785 142.709 170.928L179.809 170.978H179.928V171.09C179.928 176.164 179.878 180.279 179.865 183.137C179.865 184.538 179.865 185.627 179.834 186.387C179.834 186.748 179.834 187.01 179.834 187.227C179.818 187.32 179.795 187.412 179.766 187.501Z" fill="#263238"/>
<path d="M162.815 179.296C162.815 179.296 162.778 179.159 162.703 178.929C162.599 178.61 162.396 178.333 162.124 178.138C161.927 177.997 161.698 177.907 161.458 177.876C161.218 177.844 160.974 177.872 160.748 177.957C160.474 178.059 160.239 178.243 160.072 178.482C159.906 178.722 159.816 179.007 159.816 179.299C159.816 179.591 159.906 179.876 160.072 180.116C160.239 180.356 160.474 180.539 160.748 180.641C160.974 180.726 161.218 180.754 161.458 180.722C161.698 180.691 161.927 180.601 162.124 180.46C162.396 180.265 162.599 179.988 162.703 179.67C162.778 179.439 162.784 179.296 162.815 179.296C162.846 179.296 162.865 179.439 162.815 179.701C162.742 180.073 162.542 180.407 162.248 180.647C162.025 180.825 161.759 180.944 161.477 180.992C161.195 181.04 160.906 181.015 160.636 180.921C160.3 180.803 160.008 180.584 159.802 180.293C159.596 180.003 159.485 179.655 159.485 179.299C159.485 178.943 159.596 178.595 159.802 178.305C160.008 178.014 160.3 177.795 160.636 177.677C160.906 177.583 161.195 177.559 161.477 177.607C161.759 177.655 162.025 177.773 162.248 177.951C162.543 178.19 162.744 178.525 162.815 178.898C162.865 179.159 162.834 179.302 162.815 179.296Z" fill="#263238"/>
<path d="M88.4335 131.306H3.26843V190.384H88.4335V131.306Z" fill="#263238"/>
<path d="M243.28 127.184H-0.00012207V132.8H243.28V127.184Z" fill="#263238"/>
<path d="M10.8143 132.8H3.26843V190.384H10.8143V132.8Z" fill="#455A64"/>
<path d="M97.8546 38.3208C97.8045 38.0846 97.7691 37.8455 97.7487 37.6048C97.6582 36.9649 97.4469 36.348 97.1261 35.7868C96.9183 35.4111 96.6013 35.1071 96.2172 34.9152C96.0006 34.8222 95.7613 34.7956 95.5296 34.8388C95.298 34.8821 95.0843 34.9932 94.9159 35.158C94.1948 36.0532 93.8016 37.1682 93.8016 38.3177C93.8016 39.4672 94.1948 40.5822 94.9159 41.4774C95.0837 41.6433 95.2969 41.7556 95.5286 41.7999C95.7604 41.8442 96 41.8187 96.2172 41.7264C96.6004 41.5303 96.9168 41.2248 97.1261 40.8486C97.4469 40.2874 97.6582 39.6705 97.7487 39.0306C97.7687 38.792 97.804 38.5549 97.8546 38.3208C97.895 38.562 97.895 38.8081 97.8546 39.0493C97.8129 39.7198 97.6283 40.3736 97.3129 40.9669C97.0878 41.3946 96.7383 41.7441 96.3105 41.9692C96.057 42.0907 95.7725 42.132 95.4949 42.0875C95.2051 42.0307 94.9348 41.8999 94.7105 41.7078C93.9068 40.7622 93.4656 39.5617 93.4656 38.3208C93.4656 37.0799 93.9068 35.8794 94.7105 34.9339C94.9328 34.7375 95.2037 34.6042 95.4949 34.5479C95.7725 34.5065 96.0561 34.5477 96.3105 34.6662C96.7383 34.8913 97.0878 35.2408 97.3129 35.6686C97.6291 36.2637 97.8138 36.9197 97.8546 37.5924C97.8945 37.8336 97.8945 38.0796 97.8546 38.3208Z" fill="#263238"/>
<path d="M70.9773 26.1491L69.1096 63.4551L85.1352 64.9618L86.0193 55.903C86.0193 55.903 91.6227 57.2976 93.3659 52.0865C94.4555 48.7556 95.4267 22.675 95.4267 22.675L70.9773 26.1491Z" fill="#E5BAAB"/>
<path d="M98.8299 26.5226C97.4664 29.7664 92.3237 32.5494 92.3237 32.5494L91.4832 40.8113C90.7183 40.7585 89.9507 40.7585 89.1859 40.8113C89.5968 36.9325 84.6098 37.6983 84.0992 40.3319C83.6136 42.8721 86.5087 44.5717 86.5087 44.5717C84.5102 47.6349 83.7008 49.2537 80.8617 52.1239C77.7985 55.2368 76.1487 55.4859 72.9796 55.3925L69.4869 55.2306C69.4869 55.2306 68.2417 52.2484 67.3389 45.2068C66.8969 41.8199 64.2259 37.3807 65.0042 31.8708C67.1459 16.2249 84.4603 19.0017 84.4603 19.0017C90.9603 13.9462 102.042 18.8958 98.8299 26.5226Z" fill="#263238"/>
<path d="M97.8534 38.3646C96.6715 38.5924 95.4709 38.7092 94.2673 38.7133C93.0701 38.8195 91.8658 38.8195 90.6686 38.7133C91.8489 38.4892 93.0473 38.3746 94.2486 38.3709C95.4477 38.2644 96.6539 38.2623 97.8534 38.3646Z" fill="#263238"/>
<path d="M148.905 82.1888L143.084 85.7936L140.949 90.7744V86.4162C140.949 86.4162 142.53 84.5484 143.825 83.1849C145.12 81.8214 144.192 80.8751 143.825 80.4082C143.458 79.9412 137.885 86.4162 137.885 86.4162V90.1518C135.289 86.9579 134.088 88.0537 133.689 88.6327C133.291 89.2117 137.885 93.545 137.885 93.545V94.8649L115.055 107.143L109.047 92.2002L96.7753 98.644L104.103 116.382C104.609 117.609 105.372 118.713 106.341 119.619C107.311 120.525 108.464 121.212 109.723 121.633C110.981 122.054 112.315 122.2 113.635 122.059C114.955 121.919 116.229 121.497 117.371 120.821L144.236 104.939L146.023 101.956C146.643 100.929 147.008 99.7671 147.087 98.5693L148.015 85.1523C149.646 84.1313 148.905 82.1888 148.905 82.1888Z" fill="#E5BAAB"/>
<path d="M115.165 107.162C114.622 109.263 113.867 111.303 112.911 113.251C113.461 111.152 114.216 109.112 115.165 107.162Z" fill="#D78776"/>
<path d="M148.014 85.1527C147.67 85.3297 147.317 85.4877 146.956 85.6259C146.543 85.8211 146.176 86.0986 145.875 86.4412C145.574 86.7838 145.346 87.1843 145.206 87.6182C144.741 88.8719 144.174 90.0858 143.513 91.2479C143.877 89.9677 144.344 88.7185 144.907 87.5123C145.089 87.0028 145.378 86.5379 145.754 86.1488C146.077 85.8492 146.45 85.6089 146.856 85.4391C147.215 85.2565 147.611 85.1585 148.014 85.1527Z" fill="#D78776"/>
<path d="M147.931 87.2754C147.829 87.2889 147.733 87.3251 147.648 87.3811C147.563 87.4372 147.491 87.5117 147.439 87.5991C147.258 87.9478 147.028 88.4957 146.816 89.0809C146.582 89.8217 146.308 90.5492 145.994 91.26C145.995 90.4655 146.172 89.681 146.511 88.9626C146.712 88.4386 146.969 87.9377 147.277 87.4684C147.333 87.3903 147.406 87.3254 147.49 87.2781C147.573 87.2309 147.667 87.2023 147.762 87.1944C147.881 87.1944 147.937 87.2567 147.931 87.2754Z" fill="#D78776"/>
<path d="M93.1086 96.3719L95.7173 105.207L112.272 97.7354C111.65 95.8676 108.935 87.6431 103.699 74.5685C102.265 70.9837 99.933 67.828 96.9268 65.4052C93.9207 62.9824 90.3416 61.3739 86.534 60.7344C81.1174 59.8317 75.2214 59.1281 70.6826 59.1842C66.1766 59.2261 61.8214 60.8131 58.3448 63.6801C54.8681 66.547 52.4807 70.5203 51.5814 74.9359C50.1805 81.8778 52.6336 86.4664 51.0522 101.658L50.5479 139.867L94.7523 141.492L93.1086 96.3719Z" fill="#B11029"/>
<path d="M53.1044 101.253C53.1044 101.253 46.9594 101.614 44.5437 96.9633C44.5437 96.9633 51.1619 72.4952 53.4717 69.6126L53.1044 101.253Z" fill="#B11029"/>
<path d="M104.532 77.0339C104.374 77.1562 104.198 77.2528 104.009 77.3204C103.468 77.5169 102.898 77.6241 102.322 77.6379C101.417 77.6333 100.516 77.5183 99.6389 77.2954C98.6178 77.0651 97.4784 76.7227 96.2021 76.511C95.537 76.4306 94.8672 76.3953 94.1973 76.4051C93.4726 76.4626 92.7541 76.5813 92.0494 76.76C90.4861 77.1847 88.9853 77.8127 87.5854 78.6278C86.0725 79.4496 84.5346 80.4209 82.8972 81.3797C81.217 82.4223 79.4171 83.2585 77.5366 83.8701C75.6044 84.4688 73.541 84.5012 71.5908 83.9635C69.8223 83.3911 68.174 82.4984 66.7284 81.3299C65.34 80.2528 64.1321 79.1197 62.9928 78.0861C61.9537 77.1174 60.8513 76.2189 59.693 75.3965C58.044 74.1641 56.1217 73.3482 54.0896 73.0182C53.3389 72.976 52.5865 72.976 51.8358 73.0182C52.0194 72.9436 52.212 72.8934 52.4086 72.8688C52.9725 72.779 53.5446 72.7518 54.1145 72.7878C56.2132 73.0315 58.2149 73.8073 59.9296 75.0416C61.1256 75.8489 62.2617 76.7415 63.329 77.7126C64.487 78.7336 65.7073 79.8419 67.0645 80.8754C68.46 81.9809 70.0442 82.8246 71.7403 83.3658C73.5804 83.8616 75.5235 83.8249 77.3436 83.2599C79.1724 82.6621 80.9254 81.8535 82.5672 80.8505C84.1922 79.9104 85.7425 78.9391 87.2865 78.1173C88.7388 77.2922 90.2944 76.6641 91.9124 76.2495C92.6525 76.0724 93.4066 75.9599 94.1662 75.9133C94.8684 75.9207 95.5693 75.9748 96.2644 76.0752C97.5843 76.3242 98.7112 76.6977 99.7136 76.9592C100.56 77.2031 101.431 77.3493 102.31 77.3951C103.065 77.3908 103.815 77.269 104.532 77.0339Z" fill="#263238"/>
<path d="M93.402 107.522C92.558 107.02 91.6263 106.682 90.6563 106.526C89.5999 106.402 88.5298 106.46 87.4935 106.701C86.3106 106.937 85.0342 107.367 83.6334 107.715C81.2295 108.333 78.7127 108.368 76.293 107.815C74.4252 107.379 73.4228 106.788 73.454 106.726C73.4851 106.663 74.5684 107.056 76.3864 107.348C78.7439 107.749 81.1592 107.654 83.4778 107.068C84.8412 106.726 86.1425 106.308 87.3814 106.09C88.4857 105.867 89.6221 105.855 90.731 106.053C91.4818 106.187 92.1951 106.48 92.8229 106.912C93.2588 107.255 93.4331 107.498 93.402 107.522Z" fill="#263238"/>
<path d="M93.8523 130.334C93.8523 130.334 93.6842 130.615 93.2671 131.007C92.6645 131.558 91.9901 132.025 91.2623 132.395C90.1704 132.962 88.9622 133.269 87.7322 133.292C86.2306 133.251 84.751 132.921 83.374 132.321C81.9233 131.754 80.5972 131.119 79.3458 130.764C78.2398 130.426 77.0818 130.291 75.9277 130.366C75.1568 130.412 74.405 130.624 73.7237 130.988C73.2381 131.256 73.014 131.474 72.9704 131.43C72.9268 131.387 73.1198 131.125 73.593 130.808C74.2679 130.318 75.0565 130.01 75.8842 129.911C77.0987 129.769 78.3293 129.864 79.5077 130.191C80.9047 130.625 82.2765 131.137 83.6168 131.723C84.9151 132.291 86.3047 132.622 87.7197 132.7C88.8687 132.705 90.0051 132.461 91.0506 131.984C92.8873 131.156 93.79 130.241 93.8523 130.334Z" fill="#263238"/>
<g opacity="0.3">
<path d="M45.911 101.682C51.7012 102.865 57.647 101.682 63.543 101.321C67.1229 101.109 71.0888 100.698 73.9154 102.921C76.1568 104.664 77.0284 107.597 77.7071 110.361C80.1974 120.908 80.627 130.328 81.1811 141.142L52.5417 140.52L45.911 101.682Z" fill="black"/>
</g>
<path opacity="0.3" d="M53.4745 81.8278L54.7135 99.6839H50.9406L53.4745 81.8278Z" fill="black"/>
<path d="M61.5198 139.841L118.363 141.852C122.799 142.008 126.996 143.898 130.054 147.116C133.111 150.334 134.784 154.623 134.712 159.061L134.214 191.318H113.37L112.025 163.506L61.5198 162.174V139.841Z" fill="#263238"/>
<path d="M80.5811 169.334H74.9902V189.799H80.5811V169.334Z" fill="#455A64"/>
<path d="M28.0784 104.316V153.626C28.08 156.731 29.3146 159.708 31.5107 161.903C33.7067 164.098 36.6845 165.331 39.7894 165.331H72.6252V104.316C72.6235 102.932 72.0725 101.605 71.093 100.627C70.1136 99.6483 68.7859 99.0988 67.4016 99.0988H33.2957C31.912 99.0988 30.5849 99.6485 29.6065 100.627C28.6281 101.605 28.0784 102.932 28.0784 104.316Z" fill="#455A64"/>
<path d="M116.818 169.334H36.8516C36.8614 167.029 37.7841 164.821 39.4177 163.195C41.0513 161.568 43.2627 160.655 45.5679 160.655H108.17C110.472 160.655 112.679 161.57 114.307 163.197C115.935 164.825 116.849 167.032 116.849 169.334H116.818Z" fill="#455A64"/>
<path d="M72.6227 159.503C72.659 159.99 72.6169 160.48 72.4982 160.954C72.2301 162.064 71.6456 163.073 70.8156 163.857C69.9857 164.642 68.9459 165.169 67.8225 165.374C67.3142 165.457 66.7994 165.492 66.2846 165.48H64.6721H57.4873H44.4128L40.4593 165.43H39.3822C39.2566 165.434 39.131 165.422 39.0087 165.393C39.1322 165.373 39.2571 165.363 39.3822 165.362L40.4593 165.331L44.4128 165.275L57.4873 165.212H66.2846C66.7844 165.232 67.2848 165.202 67.7789 165.125C68.653 164.974 69.4788 164.618 70.1883 164.086C71.2412 163.307 72.0021 162.198 72.3487 160.935C72.6102 160.026 72.5791 159.497 72.6227 159.503Z" fill="#263238"/>
<path d="M82.6855 169.502C81.0578 169.666 79.4208 169.72 77.7857 169.664C76.1486 169.72 74.5095 169.666 72.8796 169.502C74.5097 169.342 76.1486 169.288 77.7857 169.34C79.4208 169.288 81.0575 169.342 82.6855 169.502Z" fill="#263238"/>
<path d="M107.016 165.767C106.939 165.567 106.889 165.357 106.867 165.144C106.786 164.739 106.68 164.154 106.556 163.394C106.3 161.869 105.933 159.659 105.535 156.944C105.31 155.587 105.13 154.074 104.831 152.499C104.75 152.107 104.675 151.708 104.594 151.297C104.514 150.886 104.358 150.5 104.24 150.09C104.177 149.89 104.121 149.679 104.059 149.467C103.997 149.255 103.903 149.062 103.822 148.844C103.654 148.433 103.505 148.016 103.324 147.599C102.534 145.894 101.534 144.294 100.348 142.836C99.0535 141.288 97.5464 139.929 95.8719 138.802C94.2047 137.661 92.3743 136.779 90.4429 136.187C88.6503 135.618 86.7877 135.3 84.908 135.241C81.2844 135.16 77.9847 135.178 75.2328 135.141C72.4809 135.104 70.252 135.073 68.708 135.035C67.936 135.035 67.3383 134.998 66.9273 134.973C66.718 134.979 66.5087 134.958 66.3047 134.911C66.508 134.858 66.7176 134.835 66.9273 134.842L68.708 134.78C70.2458 134.743 72.4809 134.711 75.2328 134.68C77.9847 134.649 81.2658 134.593 84.9266 134.643C86.8646 134.684 88.7869 135.001 90.6359 135.583C92.6319 136.18 94.5225 137.086 96.2392 138.266C97.9689 139.424 99.5209 140.827 100.846 142.432C102.06 143.939 103.079 145.594 103.879 147.356C104.059 147.78 104.208 148.216 104.377 148.633C104.451 148.844 104.532 149.05 104.613 149.255C104.694 149.461 104.731 149.679 104.794 149.878C104.912 150.301 105.024 150.712 105.136 151.123C105.248 151.534 105.292 151.951 105.367 152.368C105.647 153.981 105.796 155.481 105.989 156.839C106.344 159.572 106.612 161.788 106.805 163.32C106.892 164.086 106.96 164.683 106.998 165.088C107.038 165.312 107.044 165.541 107.016 165.767Z" fill="#455A64"/>
<path d="M6.1038 106.096C6.1038 106.096 5.0952 108.917 7.02525 110.959H11.041C11.041 110.959 10.6861 106.402 6.1038 106.096Z" fill="#B11029"/>
<path opacity="0.4" d="M6.1038 106.096C6.1038 106.096 5.0952 108.917 7.02525 110.959H11.041C11.041 110.959 10.6861 106.402 6.1038 106.096Z" fill="black"/>
<path d="M12.9455 100.288C12.7774 100.089 9.34066 105.468 11.2707 110.959H15.0561C15.0561 110.959 16.5379 104.571 12.9455 100.288Z" fill="#B11029"/>
<path d="M19.6501 106.096C18.4126 106.179 17.2521 106.726 16.4003 107.628C15.5485 108.529 15.0682 109.719 15.0553 110.959H18.8345C18.8345 110.959 20.4906 108.63 19.6501 106.096Z" fill="#B11029"/>
<path d="M6.71365 110.747C5.40812 111.685 4.39555 112.973 3.79376 114.463C3.19196 115.954 3.02569 117.584 3.31427 119.165C4.28552 124.768 10.2002 127.184 10.2002 127.184H16.7561C16.7561 127.184 23.4304 124.239 23.2685 118.181C23.1066 112.123 19.1345 110.835 19.1345 110.835L6.71365 110.747Z" fill="#455A64"/>
<path d="M23.2433 117.503C23.0949 117.252 22.9126 117.024 22.7017 116.824C22.3968 116.581 22.0466 116.4 21.6715 116.293C21.2963 116.186 20.9037 116.155 20.5163 116.201C19.3569 116.421 18.2613 116.898 17.31 117.596C16.7057 117.982 16.0656 118.31 15.3986 118.573C14.6626 118.853 13.8655 118.933 13.0887 118.804C11.4887 118.53 10.2124 117.671 9.01696 117.098C7.99983 116.504 6.83072 116.223 5.65494 116.288C4.86888 116.37 4.14111 116.74 3.61282 117.328C3.43629 117.56 3.28595 117.811 3.16455 118.075C3.16871 117.997 3.18337 117.919 3.20813 117.845C3.27265 117.621 3.37591 117.41 3.51321 117.222C4.03526 116.568 4.79279 116.143 5.62381 116.039C6.85996 115.931 8.09943 116.207 9.17261 116.83C10.4178 117.403 11.663 118.231 13.1635 118.48C13.887 118.604 14.6306 118.533 15.3176 118.275C15.9686 118.021 16.594 117.706 17.1854 117.334C18.1783 116.63 19.3202 116.163 20.5226 115.971C20.9373 115.93 21.3559 115.977 21.7516 116.108C22.1472 116.239 22.5111 116.451 22.8199 116.731C22.9806 116.888 23.1114 117.074 23.206 117.278C23.2371 117.422 23.2558 117.496 23.2433 117.503Z" fill="#263238"/>
<path d="M23.3411 118.966C23.1917 118.72 23.0118 118.494 22.8056 118.293C22.5054 118.048 22.1586 117.867 21.7862 117.76C21.4137 117.653 21.0235 117.623 20.639 117.671C19.4923 117.891 18.4095 118.366 17.47 119.059C16.8814 119.448 16.2557 119.777 15.6022 120.043C14.8729 120.324 14.0816 120.403 13.311 120.273C11.7234 119.999 10.4595 119.14 9.2766 118.567C8.27512 117.975 7.12008 117.693 5.95816 117.758C5.17718 117.843 4.45589 118.216 3.93472 118.804C3.76086 119.033 3.61458 119.282 3.4989 119.545C3.4989 119.545 3.4989 119.464 3.53626 119.314C3.60361 119.103 3.70451 118.903 3.8351 118.723C4.34879 118.07 5.09716 117.643 5.9208 117.534C7.13613 117.423 8.35591 117.691 9.41358 118.3C10.6214 118.872 11.904 119.7 13.3608 119.95C14.0762 120.074 14.8118 120.003 15.4901 119.744C16.1315 119.491 16.7466 119.176 17.3268 118.804C18.308 118.099 19.4399 117.632 20.6328 117.44C21.0387 117.404 21.4477 117.453 21.8337 117.584C22.2196 117.714 22.574 117.924 22.8741 118.2C23.0319 118.357 23.1606 118.54 23.2539 118.742C23.2952 118.811 23.3246 118.887 23.3411 118.966Z" fill="#263238"/>
<path d="M6.32255 118.929C6.32255 118.891 6.49687 118.779 6.72724 118.966C6.79685 119.026 6.84661 119.106 6.86995 119.195C6.8933 119.284 6.88912 119.378 6.85798 119.464C6.81967 119.571 6.74783 119.662 6.65324 119.724C6.55865 119.786 6.44642 119.816 6.33343 119.809C6.22043 119.802 6.11276 119.759 6.0266 119.685C5.94043 119.612 5.88043 119.512 5.8556 119.402C5.83371 119.316 5.83548 119.227 5.86071 119.142C5.88594 119.058 5.93367 118.982 5.9988 118.922C6.22293 118.736 6.41594 118.823 6.40348 118.86C6.39103 118.897 6.26651 118.929 6.17312 119.078C6.15296 119.115 6.14241 119.157 6.14241 119.199C6.14241 119.242 6.15296 119.284 6.17312 119.321C6.19137 119.364 6.22034 119.403 6.25735 119.432C6.29436 119.462 6.33821 119.481 6.38481 119.489C6.43079 119.487 6.47557 119.474 6.51483 119.45C6.55409 119.426 6.5865 119.392 6.60894 119.352C6.62979 119.317 6.6408 119.277 6.6408 119.237C6.6408 119.196 6.62979 119.156 6.60894 119.122C6.47197 118.978 6.32877 118.972 6.32255 118.929Z" fill="#263238"/>
<path d="M13.7542 116.563C13.7542 116.525 13.9286 116.407 14.1652 116.6C14.2323 116.662 14.2799 116.742 14.302 116.83C14.3241 116.919 14.3199 117.012 14.2897 117.098C14.2504 117.204 14.1787 117.295 14.0847 117.357C13.9908 117.42 13.8795 117.451 13.7667 117.447C13.6542 117.436 13.5477 117.391 13.4618 117.317C13.376 117.244 13.315 117.145 13.2873 117.036C13.2647 116.95 13.2667 116.86 13.2932 116.775C13.3196 116.69 13.3693 116.614 13.4367 116.557C13.6608 116.37 13.8539 116.457 13.8352 116.494C13.8165 116.532 13.6982 116.563 13.6048 116.712C13.5862 116.75 13.5764 116.791 13.5764 116.834C13.5764 116.876 13.5862 116.917 13.6048 116.955C13.6231 116.999 13.652 117.037 13.689 117.066C13.7261 117.096 13.7699 117.115 13.8165 117.123C13.8626 117.122 13.9077 117.109 13.947 117.085C13.9864 117.061 14.0187 117.027 14.0406 116.986C14.0622 116.952 14.0736 116.912 14.0736 116.871C14.0736 116.83 14.0622 116.79 14.0406 116.756C13.9037 116.613 13.7605 116.606 13.7542 116.563Z" fill="#263238"/>
<path d="M20.9554 119.035C20.9554 118.997 21.1298 118.885 21.3663 119.072C21.4335 119.134 21.4811 119.214 21.5032 119.302C21.5253 119.391 21.521 119.484 21.4909 119.57C21.4516 119.676 21.3798 119.766 21.2859 119.829C21.192 119.892 21.0807 119.923 20.9679 119.919C20.8562 119.908 20.7503 119.864 20.6645 119.792C20.5788 119.719 20.5173 119.622 20.4885 119.514C20.4661 119.427 20.4682 119.336 20.4946 119.25C20.521 119.164 20.5706 119.088 20.6379 119.028C20.862 118.841 21.0551 118.929 21.0364 118.966C21.0177 119.003 20.8994 119.041 20.806 119.184C20.7798 119.221 20.7636 119.264 20.759 119.309C20.7544 119.354 20.7616 119.399 20.7798 119.441C20.798 119.482 20.8266 119.518 20.8628 119.545C20.8991 119.572 20.9417 119.589 20.9866 119.595C21.0327 119.594 21.0777 119.581 21.1171 119.557C21.1564 119.532 21.1887 119.498 21.2107 119.458C21.2322 119.423 21.2436 119.383 21.2436 119.343C21.2436 119.302 21.2322 119.262 21.2107 119.228C21.1049 119.091 20.9679 119.078 20.9554 119.035Z" fill="#263238"/>
<path d="M210.475 105.032L212.611 127.184H223.407L225.99 105.032H210.475Z" fill="#455A64"/>
<path d="M210.476 102.169C209.812 102.998 209.453 104.032 209.461 105.095H227.006C227.091 104.561 227.043 104.015 226.866 103.504C226.689 102.994 226.389 102.535 225.991 102.169H210.476Z" fill="#263238"/>
<path d="M212.474 100.139L211.883 102.33L225.126 102.43L224.248 100.114L212.474 100.139Z" fill="#263238"/>
<path d="M210.274 110.579C210.274 110.785 211.52 121.749 211.52 121.749H224.712L225.958 110.598L210.274 110.579Z" fill="#B11029"/>
</svg>
