<?xml version="1.0" encoding="UTF-8" standalone="no"?>
<svg width="87px" height="87px" viewBox="0 0 87 87" version="1.1" xmlns="http://www.w3.org/2000/svg" xmlns:xlink="http://www.w3.org/1999/xlink">
    <!-- Generator: Sketch 41.2 (35397) - http://www.bohemiancoding.com/sketch -->
    <title>GM_Choice_default_Desktop</title>
    <desc>Created with Sketch.</desc>
    <defs></defs>
    <g id="Page-1" stroke="none" stroke-width="1" fill="none" fill-rule="evenodd">
        <g id="StyleGuide-02" transform="translate(-533.000000, -4203.000000)">
            <g id="GM_Choice_default_Desktop" transform="translate(533.458921, 4203.746475)">
                <g id="Group-8">
                    <ellipse id="Oval-3" fill="#000000" cx="43" cy="43" rx="43" ry="43"></ellipse>
                    <ellipse id="Oval-3" fill="#000000" cx="43" cy="43" rx="43" ry="43"></ellipse>
                    <g id="Group-7" transform="translate(11.000000, 24.000000)" fill="#FEFEFE">
                        <path d="M21.9566062,23.9347544 C20.2897035,24.5043158 17.1334204,25.286614 13.976385,25.286614 C9.61505752,25.286614 6.45802212,24.1837018 4.25930531,22.0865088 C2.09669469,19.9870526 0.890146018,16.8578596 0.890146018,13.3356316 C0.926252212,5.3685614 6.70625221,0.815842105 14.5450575,0.815842105 C17.6298805,0.815842105 20.0061195,1.42010526 21.1765619,1.95345614 L20.0407212,6.32889474 C18.729615,5.72387719 17.1334204,5.29840351 14.5089513,5.29840351 C10.0047035,5.29840351 6.56483628,7.85803509 6.56483628,13.0519825 C6.56483628,18.0309298 9.68501327,20.9126842 14.1193053,20.9126842 C15.3251018,20.9126842 16.3172699,20.7701053 16.7430221,20.5920702 L16.7430221,17.3957368 L13.0549248,17.3957368 L13.0549248,13.1628772 L21.9566062,13.1628772 L21.9566062,23.9347544 Z" id="Fill-29"></path>
                        <path d="M52.9843894,1.06516667 L50.4659823,9.03148246 C49.6505841,11.7352018 48.8344336,14.8651491 48.1965575,17.6397807 L48.0543894,17.6397807 C47.521823,14.8289386 46.8132389,11.8415702 46.0324425,9.10314912 L43.6923097,1.06516667 L36.4921327,1.06516667 L35.3826195,18.5103421 C34.8846549,19.2519035 34.0602301,19.7354649 32.6693894,19.7430088 L31.0807168,19.7430088 C30.1449646,19.7399912 29.5364248,20.0025175 29.1753628,20.3970614 C28.8158053,20.7893421 28.7157611,21.2804474 28.7157611,21.7149737 L28.7157611,21.8688684 L29.3453628,21.8688684 L29.3604071,21.7315702 C29.4010265,21.1567281 30.1931062,20.9100439 30.8460265,20.9100439 L31.6110265,20.9100439 C31.5756726,22.8427807 30.341292,24.2353772 28.3411593,24.2414123 C26.7088584,24.2406579 25.1089027,23.0917281 25.1058938,21.408693 C25.1089027,19.7249035 26.6689912,18.6544298 28.2223097,18.6536754 C28.5593009,18.6521667 28.7939912,18.6453772 28.9782832,18.6016228 C29.1558053,18.5729561 29.3348319,18.4296228 29.3205398,18.2493246 C29.3348319,18.0946754 29.197177,17.9377632 29.0046106,17.8743947 C28.8060265,17.8004649 28.5149204,17.7461491 28.0342566,17.6782544 C26.8352301,17.4172368 26.052177,16.2592544 26.0559381,15.3962368 C26.0672212,14.1009561 27.0240354,13.3412895 28.4946106,13.3284649 C29.8305398,13.3367632 30.5850088,14.0896404 30.9377965,15.4128333 L30.9663805,15.5305175 L31.4049204,15.5320263 L31.602,15.5320263 L31.5756726,15.3585175 C31.4583274,14.5709386 31.3454956,13.7712895 31.3041239,12.9776754 L31.3018673,12.8939386 L31.2281504,12.8539561 C30.4812035,12.4284825 29.4296106,12.2572368 28.4366903,12.2572368 C26.5712035,12.2595 24.561292,13.3345 24.557531,15.3962368 C24.5492566,16.8024123 25.2819115,17.5696228 26.3681062,18.1090088 C24.7433274,18.4492368 23.5992124,19.6803947 23.6059823,21.4267982 C23.6104956,24.0565877 25.9716903,25.3088684 28.3411593,25.3133947 L28.3637257,25.3133947 C31.1845221,25.3133947 32.9996106,23.5036228 33.1064248,20.8987281 C34.0970885,20.8210263 34.7868673,20.5207807 35.2825752,20.0877632 L34.9673982,25.0380439 L39.9681062,25.0380439 L40.4299646,15.9326053 C40.5713805,12.9444825 40.7135487,9.24497368 40.8196106,6.00865789 L40.8903186,6.00865789 C41.4928407,9.1740614 42.2736372,12.5537105 43.0536814,15.3985 L45.6074425,24.6465175 L49.8281062,24.6465175 L52.7361593,15.2921316 C53.6576195,12.4820439 54.6505398,9.06844737 55.4305841,6.00865789 L55.5027965,6.00865789 C55.5027965,9.53013158 55.6088584,12.980693 55.7149204,15.8609386 L56.1045664,25.0380439 L61.3535044,25.0380439 L60.077,1.06516667 L52.9843894,1.06516667 Z" id="Fill-30"></path>
                    </g>
                </g>
                <text id="Choice" font-family="PFBagueSansPro-UBlack, PF Bague Sans Pro" font-size="12" font-weight="700" line-spacing="18" letter-spacing="4.5" fill="#FFFFFF">
                    <tspan x="13.324" y="63">Choic</tspan>
                    <tspan x="66.376" y="63">e</tspan>
                </text>
            </g>
        </g>
    </g>
</svg>